<svg width="1395" height="158" viewBox="0 0 1395 158" fill="none" xmlns="http://www.w3.org/2000/svg">
<g id="Timeline Point" filter="url(#filter0_d_52_53)">
<g id="Rectangle" filter="url(#filter1_d_52_53)">
<rect x="129" y="60" width="1262" height="30" rx="15" fill="#842828"/>
</g>
<g id="Circle">
<path d="M154 75C154 116.421 120.421 150 79 150C37.5786 150 4 116.421 4 75C4 33.5786 37.5786 0 79 0C120.421 0 154 33.5786 154 75Z" fill="#C93030"/>
<path d="M129 75C129 102.614 106.614 125 79 125C51.3858 125 29 102.614 29 75C29 47.3858 51.3858 25 79 25C106.614 25 129 47.3858 129 75Z" fill="white"/>
</g>
</g>
<defs>
<filter id="filter0_d_52_53" x="0" y="0" width="1395" height="158" filterUnits="userSpaceOnUse" color-interpolation-filters="sRGB">
<feFlood flood-opacity="0" result="BackgroundImageFix"/>
<feColorMatrix in="SourceAlpha" type="matrix" values="0 0 0 0 0 0 0 0 0 0 0 0 0 0 0 0 0 0 127 0" result="hardAlpha"/>
<feOffset dy="4"/>
<feGaussianBlur stdDeviation="2"/>
<feComposite in2="hardAlpha" operator="out"/>
<feColorMatrix type="matrix" values="0 0 0 0 0 0 0 0 0 0 0 0 0 0 0 0 0 0 0.25 0"/>
<feBlend mode="normal" in2="BackgroundImageFix" result="effect1_dropShadow_52_53"/>
<feBlend mode="normal" in="SourceGraphic" in2="effect1_dropShadow_52_53" result="shape"/>
</filter>
<filter id="filter1_d_52_53" x="125" y="60" width="1270" height="38" filterUnits="userSpaceOnUse" color-interpolation-filters="sRGB">
<feFlood flood-opacity="0" result="BackgroundImageFix"/>
<feColorMatrix in="SourceAlpha" type="matrix" values="0 0 0 0 0 0 0 0 0 0 0 0 0 0 0 0 0 0 127 0" result="hardAlpha"/>
<feOffset dy="4"/>
<feGaussianBlur stdDeviation="2"/>
<feComposite in2="hardAlpha" operator="out"/>
<feColorMatrix type="matrix" values="0 0 0 0 0 0 0 0 0 0 0 0 0 0 0 0 0 0 0.25 0"/>
<feBlend mode="normal" in2="BackgroundImageFix" result="effect1_dropShadow_52_53"/>
<feBlend mode="normal" in="SourceGraphic" in2="effect1_dropShadow_52_53" result="shape"/>
</filter>
</defs>
</svg>
